<?xml version="1.0" encoding="utf-8"?>
<!-- Generator: Adobe Illustrator 22.1.0, SVG Export Plug-In . SVG Version: 6.00 Build 0)  -->
<svg version="1.1" id="Layer_1" xmlns="http://www.w3.org/2000/svg" xmlns:xlink="http://www.w3.org/1999/xlink" x="0px" y="0px"
	 viewBox="0 0 915.9 169.1" style="enable-background:new 0 0 915.9 169.1;" xml:space="preserve">
<style type="text/css">
	.st0{fill:#ff3e69;}
	.st1{fill:#404040;}
</style>
<g>
	<path class="st0" d="M83.5,6C40.5,8.1,6.7,43.8,6.8,86.8c0,13.1,3.2,25.4,8.8,36.4L7,164.7c-0.5,2.2,1.6,4.2,3.8,3.7l40.7-9.6
		c10.5,5.2,22.2,8.2,34.6,8.4c43.9,0.7,80.4-34.2,81.8-78C169.4,42.1,130.6,3.8,83.5,6z M132,131.2c-11.9,11.9-27.8,18.5-44.6,18.5
		c-9.9,0-19.3-2.2-28.1-6.6l-5.7-2.8l-25,5.9l5.3-25.5l-2.8-5.5c-4.6-8.9-6.9-18.6-6.9-28.6c0-16.9,6.6-32.7,18.5-44.6
		c11.8-11.8,27.9-18.5,44.6-18.5c16.9,0,32.7,6.6,44.6,18.5c11.9,11.9,18.5,27.8,18.5,44.6C150.5,103.2,143.8,119.3,132,131.2z"/>
	<path class="st0" d="M126.5,104l-15.6-4.5c-2.1-0.6-4.3,0-5.8,1.5l-3.8,3.9c-1.6,1.6-4.1,2.2-6.2,1.3c-7.4-3-22.9-16.8-26.9-23.7
		c-1.1-2-1-4.5,0.5-6.3l3.3-4.3c1.3-1.7,1.6-4,0.7-5.9l-6.6-14.9c-1.6-3.6-6.1-4.6-9.1-2.1c-4.4,3.7-9.5,9.3-10.2,15.5
		c-1.1,10.9,3.6,24.7,21.3,41.3c20.5,19.1,36.9,21.7,47.6,19.1c6.1-1.5,10.9-7.4,14-12.2C131.9,109.4,130.3,105.1,126.5,104z"/>
</g>
<g>
	<path class="st1" d="M173.8,56.2c-0.4-1.2-0.8-2.6-0.8-3.8c0-5.6,4.7-9.7,10.2-9.7c4.7,0,8.4,3,9.7,7.1l18,55.5l18.1-55
		c1.6-4.7,5-7.9,10.1-7.9h1.6c5,0,8.5,3.1,10.1,7.9l18.1,55l18-55.5c1.3-3.9,4.7-7.1,9.6-7.1c5.4,0,9.8,4.1,9.8,9.6
		c0,1.2-0.4,2.7-0.8,3.9l-25.4,71.2c-1.8,5-5.6,8.1-10.3,8.1h-2.1c-4.8,0-8.4-3-10.2-8.1l-17.9-51.9l-17.9,51.9
		c-1.8,5.2-5.4,8.1-10.2,8.1h-2.1c-4.8,0-8.5-3.1-10.3-8.1L173.8,56.2z"/>
	<path class="st1" d="M311.8,48.7c0-5.4,4.4-9.8,9.8-9.8c5.4,0,9.8,4.4,9.8,9.8v25.9c4.5-5.8,10.3-11.1,20.3-11.1
		c14.9,0,23.5,9.8,23.5,25.7V125c0,5.4-4.4,9.8-9.8,9.8c-5.4,0-9.8-4.4-9.8-9.8V95.4c0-9.3-4.4-14.1-11.9-14.1
		c-7.5,0-12.3,4.8-12.3,14.1V125c0,5.4-4.4,9.8-9.8,9.8c-5.4,0-9.8-4.4-9.8-9.8V48.7z"/>
	<path class="st1" d="M381.9,114.2v-0.3c0-15.1,11.5-22.1,27.9-22.1c7,0,12,1.2,16.9,2.8v-1.2c0-8.1-5-12.7-14.9-12.7
		c-5.4,0-9.8,0.8-13.6,1.9c-1.2,0.4-1.9,0.5-2.8,0.5c-4.5,0-8.1-3.5-8.1-8c0-3.5,2.2-6.5,5.3-7.6c6.2-2.3,12.9-3.6,22.1-3.6
		c10.7,0,18.5,2.8,23.4,7.8c5.2,5.2,7.5,12.8,7.5,22.1v31.6c0,5.3-4.3,9.4-9.6,9.4c-5.7,0-9.4-4-9.4-8.1v-0.1
		c-4.8,5.3-11.4,8.8-21,8.8C392.6,135.4,381.9,127.9,381.9,114.2z M427.1,109.6v-3.5c-3.4-1.6-7.8-2.6-12.5-2.6
		c-8.4,0-13.6,3.4-13.6,9.6v0.3c0,5.3,4.4,8.4,10.7,8.4C420.8,121.8,427.1,116.8,427.1,109.6z"/>
	<path class="st1" d="M458.9,114.4V81.6h-0.6c-4.7,0-8.4-3.8-8.4-8.4c0-4.7,3.8-8.4,8.4-8.4h0.6v-8.7c0-5.4,4.4-9.8,9.8-9.8
		c5.4,0,9.8,4.4,9.8,9.8v8.7h8.7c4.7,0,8.4,3.8,8.4,8.4c0,4.7-3.8,8.4-8.4,8.4h-8.7v29.6c0,4.5,1.9,6.7,6.3,6.7
		c0.6,0,1.9-0.1,2.3-0.1c4.4,0,8.2,3.6,8.2,8.1c0,3.5-2.3,6.3-5,7.4c-3.6,1.4-7,1.9-11.3,1.9C467,135.3,458.9,130.5,458.9,114.4z"/>
	<path class="st1" d="M501.2,127.5c-2.1-1.3-3.8-3.6-3.8-6.7c0-4.4,3.4-7.8,7.8-7.8c1.4,0,2.8,0.4,3.9,1c6.6,4.1,13.2,6.2,18.8,6.2
		c5.7,0,8.3-2.1,8.3-5.2v-0.3c0-4.3-6.7-5.7-14.4-8C512,104,501,99.4,501,86v-0.3c0-14.1,11.4-22,25.4-22c7.2,0,14.7,1.9,21.5,5.3
		c2.8,1.4,4.7,4,4.7,7.4c0,4.4-3.5,7.8-7.9,7.8c-1.4,0-2.3-0.3-3.6-0.9c-5.6-2.7-10.9-4.4-15-4.4c-4.8,0-7.2,2.1-7.2,4.8v0.3
		c0,3.9,6.6,5.7,14.1,8.3c9.7,3.2,21,7.9,21,20.6v0.3c0,15.4-11.5,22.4-26.5,22.4C518.8,135.4,509.6,132.9,501.2,127.5z"/>
	<path class="st1" d="M564.4,51.6c0-4.5,3.5-8,8-8h25.7c28.5,0,48.1,19.5,48.1,45v0.3c0,25.5-19.7,45.3-48.1,45.3h-25.7
		c-4.5,0-8-3.5-8-8V51.6z M598.2,119.6c19,0,31.4-12.8,31.4-30.5v-0.3c0-17.7-12.4-30.8-31.4-30.8h-17.9v61.6H598.2z"/>
	<path class="st1" d="M657.2,47.4c0-4.7,3.9-7.6,8.9-7.6s8.9,3,8.9,7.6v0.8c0,4.7-3.9,7.8-8.9,7.8s-8.9-3.1-8.9-7.8V47.4z
		 M658.3,72.9c0-4.4,3.4-7.9,7.8-7.9s7.9,3.5,7.9,7.9V127c0,4.4-3.5,7.8-7.9,7.8c-4.3,0-7.8-3.4-7.8-7.8V72.9z"/>
	<path class="st1" d="M688.1,72.9c0-4.4,3.4-7.9,7.8-7.9s7.9,3.5,7.9,7.9v7c3.6-8.5,10.3-15,17.2-15c4.9,0,7.8,3.2,7.8,7.8
		c0,4.1-2.7,6.9-6.2,7.5c-11.1,1.9-18.8,10.5-18.8,26.6V127c0,4.3-3.5,7.8-7.9,7.8c-4.3,0-7.8-3.4-7.8-7.8V72.9z"/>
	<path class="st1" d="M764.2,135.6c-19.8,0-35.1-14.4-35.1-35.4v-0.3c0-19.5,13.8-35.6,33.4-35.6c21.7,0,32.5,17.9,32.5,33.6
		c0,4.4-3.4,7.5-7.4,7.5h-42.8c1.7,11.1,9.6,17.3,19.7,17.3c6.6,0,11.8-2.3,16.2-6c1.2-0.9,2.2-1.4,4-1.4c3.5,0,6.2,2.7,6.2,6.3
		c0,1.9-0.9,3.6-2.1,4.8C782.5,132.2,774.8,135.6,764.2,135.6z M779.7,95.2c-1-10.1-7-18-17.3-18c-9.6,0-16.3,7.4-17.7,18H779.7z"/>
	<path class="st1" d="M800.9,100.3v-0.3c0-19.4,15-35.7,35.6-35.7c10.7,0,18.1,3.5,23.9,8.5c1,0.9,2.5,2.8,2.5,5.4
		c0,4-3.2,7.1-7.2,7.1c-1.9,0-3.6-0.8-4.7-1.6c-4-3.4-8.4-5.8-14.6-5.8c-11.4,0-19.8,9.8-19.8,21.7v0.3c0,12.2,8.4,21.9,20.4,21.9
		c6.2,0,11-2.5,15.3-6.1c0.9-0.8,2.5-1.7,4.3-1.7c3.8,0,6.7,3.1,6.7,6.9c0,2.1-0.8,3.8-2.2,4.9c-6.1,5.8-13.5,9.7-24.8,9.7
		C815.9,135.6,800.9,119.7,800.9,100.3z"/>
	<path class="st1" d="M875.4,115.2v-36h-2.6c-3.8,0-6.7-3-6.7-6.7s3-6.7,6.7-6.7h2.6V54.1c0-4.3,3.5-7.8,7.9-7.8
		c4.3,0,7.8,3.5,7.8,7.8v11.6h12.3c3.8,0,6.9,3,6.9,6.7s-3.1,6.7-6.9,6.7h-12.3v33.5c0,6.1,3.1,8.5,8.4,8.5c1.8,0,3.4-0.4,3.9-0.4
		c3.5,0,6.6,2.8,6.6,6.5c0,2.8-1.9,5.2-4.1,6.1c-3.4,1.2-6.6,1.8-10.7,1.8C883.6,135.3,875.4,130.2,875.4,115.2z"/>
</g>
</svg>
