<?xml version="1.0" encoding="utf-8"?>
<!-- Generator: Adobe Illustrator 22.1.0, SVG Export Plug-In . SVG Version: 6.00 Build 0)  -->
<svg version="1.1" id="Layer_1" xmlns="http://www.w3.org/2000/svg" xmlns:xlink="http://www.w3.org/1999/xlink" x="0px" y="0px"
	 viewBox="0 0 915.9 169.1" style="enable-background:new 0 0 915.9 169.1;" xml:space="preserve">
<style type="text/css">
	.st0{fill:#7AD06D;}
	.st1{fill:#404040;}
</style>
<g>
	<path class="st0" d="M89.5,6c-42.9,2-76.8,37.8-76.7,80.8c0,13.1,3.2,25.4,8.8,36.4L13,164.7c-0.5,2.2,1.6,4.2,3.8,3.7l40.7-9.6
		c10.5,5.2,22.2,8.2,34.6,8.4c43.9,0.7,80.4-34.2,81.8-78C175.4,42.1,136.6,3.8,89.5,6z M138,131.2c-11.9,11.9-27.8,18.5-44.6,18.5
		c-9.9,0-19.3-2.2-28.1-6.6l-5.7-2.8l-25,5.9l5.3-25.5l-2.8-5.5c-4.6-8.9-6.9-18.6-6.9-28.6c0-16.9,6.6-32.7,18.5-44.6
		c11.8-11.8,27.9-18.5,44.6-18.5c16.9,0,32.7,6.6,44.6,18.5c11.9,11.9,18.5,27.8,18.5,44.6C156.5,103.2,149.8,119.3,138,131.2z"/>
	<path class="st0" d="M132.5,104l-15.6-4.5c-2.1-0.6-4.3,0-5.8,1.5l-3.8,3.9c-1.6,1.6-4.1,2.2-6.2,1.3c-7.4-3-22.9-16.8-26.9-23.7
		c-1.1-2-1-4.5,0.5-6.3l3.3-4.3c1.3-1.7,1.6-4,0.7-5.9l-6.6-14.9c-1.6-3.6-6.1-4.6-9.1-2.1c-4.4,3.7-9.5,9.3-10.2,15.5
		c-1.1,10.9,3.6,24.7,21.3,41.3c20.5,19.1,36.9,21.7,47.6,19.1c6.1-1.5,10.9-7.4,14-12.2C137.9,109.4,136.3,105.1,132.5,104z"/>
</g>
<g>
	<path class="st1" d="M191.4,46.9c0-2.8,2.3-5.2,5-5.2h26.4c28.5,0,48.1,19.5,48.1,45V87c0,25.5-19.7,45.3-48.1,45.3h-26.4
		c-2.7,0-5-2.3-5-5.2V46.9z M222.8,122.9c22.9,0,37.5-15.5,37.5-35.6V87c0-20.1-14.6-35.8-37.5-35.8h-21.2v71.7H222.8z"/>
	<path class="st1" d="M284.5,44.5c0-3.2,2.6-5.3,5.8-5.3c3.4,0,6,2.1,6,5.3v1.7c0,3.1-2.6,5.3-6,5.3c-3.2,0-5.8-2.2-5.8-5.3V44.5z
		 M285.5,69.8c0-2.7,2.2-5,4.9-5c2.8,0,5,2.2,5,5v58.1c0,2.8-2.1,5-4.9,5s-5-2.2-5-5V69.8z"/>
	<path class="st1" d="M312.2,69.8c0-2.7,2.2-5,4.9-5c2.8,0,5,2.2,5,5v12.5c4.9-11.1,14.6-17.9,23-17.9c3,0,4.9,2.2,4.9,5
		c0,2.7-1.8,4.7-4.4,5c-12.9,1.6-23.5,11.3-23.5,30.5v22.8c0,2.7-2.1,5-4.9,5c-2.8,0-5-2.2-5-5V69.8z"/>
	<path class="st1" d="M384.7,133.9c-18.4,0-33.4-14.1-33.4-34.8v-0.3c0-19.3,13.6-34.8,32.1-34.8c19.8,0,31,16.2,31,33.9
		c0,2.7-2.2,4.7-4.7,4.7h-48.4c1.4,14.5,11.6,22.6,23.5,22.6c8.3,0,14.4-3.2,19.3-7.8c0.8-0.6,1.7-1.2,2.8-1.2
		c2.5,0,4.4,1.9,4.4,4.3c0,1.2-0.5,2.3-1.6,3.2C403.6,129.9,396.1,133.9,384.7,133.9z M404.5,95.2c-1-12.2-8-22.8-21.3-22.8
		c-11.6,0-20.4,9.7-21.7,22.8H404.5z"/>
	<path class="st1" d="M421.5,99.2v-0.3c0-18.9,14.7-34.9,34.3-34.9c11.1,0,18.6,4.3,24.6,9.7c0.8,0.6,1.6,1.9,1.6,3.5
		c0,2.7-2.2,4.8-4.8,4.8c-1.3,0-2.5-0.5-3.2-1.2c-4.8-4.4-10.2-8-18.2-8c-13.6,0-23.9,11.5-23.9,25.9v0.3c0,14.5,10.6,26,24.6,26
		c7.6,0,13.7-3.5,18.6-8.1c0.6-0.6,1.6-1.3,2.8-1.3c2.5,0,4.5,2.2,4.5,4.5c0,1.2-0.5,2.3-1.3,3.1c-6.3,6.3-14,10.7-25.2,10.7
		C436.3,133.9,421.5,118,421.5,99.2z"/>
	<path class="st1" d="M496.7,114.6V74.2h-5.4c-2.3,0-4.4-2.1-4.4-4.4c0-2.5,2.1-4.4,4.4-4.4h5.4V49.7c0-2.7,2.1-5,4.9-5
		c2.7,0,5,2.3,5,5v15.8H524c2.5,0,4.5,2.1,4.5,4.4c0,2.5-2.1,4.4-4.5,4.4h-17.3v39.1c0,8.1,4.5,11.1,11.3,11.1
		c3.5,0,5.3-0.9,6.1-0.9c2.3,0,4.3,1.9,4.3,4.3c0,1.8-1.2,3.2-2.8,3.9c-2.8,1.2-6,1.8-9.8,1.8C504.8,133.5,496.7,128.2,496.7,114.6z
		"/>
	<path class="st1" d="M533.2,54.4c-0.4-1.2-0.8-2.6-0.8-3.8c0-5.6,4.7-9.7,10.2-9.7c4.7,0,8.4,3,9.7,7.1l18,55.5l18.1-55
		c1.6-4.7,5-7.9,10.1-7.9h1.6c5,0,8.5,3.1,10.1,7.9l18.1,55l18-55.5c1.3-3.9,4.7-7.1,9.6-7.1c5.4,0,9.8,4.1,9.8,9.6
		c0,1.2-0.4,2.7-0.8,3.9l-25.4,71.1c-1.8,5-5.6,8.2-10.3,8.2h-2.1c-4.8,0-8.4-3-10.2-8.2L599,73.7l-17.9,51.9
		c-1.8,5.2-5.4,8.2-10.2,8.2h-2.1c-4.8,0-8.5-3.1-10.3-8.2L533.2,54.4z"/>
	<path class="st1" d="M671.2,46.9c0-5.4,4.4-9.8,9.8-9.8c5.4,0,9.8,4.4,9.8,9.8v25.9c4.5-5.8,10.3-11.1,20.3-11.1
		c14.9,0,23.5,9.8,23.5,25.7v35.8c0,5.4-4.4,9.8-9.8,9.8c-5.4,0-9.8-4.4-9.8-9.8V93.6c0-9.3-4.4-14.1-11.9-14.1
		c-7.5,0-12.3,4.8-12.3,14.1v29.6c0,5.4-4.4,9.8-9.8,9.8c-5.4,0-9.8-4.4-9.8-9.8V46.9z"/>
	<path class="st1" d="M741.3,112.4v-0.3c0-15.1,11.5-22.1,27.9-22.1c7,0,12,1.2,16.9,2.8v-1.2c0-8.1-5-12.7-14.9-12.7
		c-5.4,0-9.8,0.8-13.6,1.9c-1.2,0.4-1.9,0.5-2.8,0.5c-4.5,0-8.1-3.5-8.1-8c0-3.5,2.2-6.5,5.3-7.6c6.2-2.3,12.9-3.6,22.1-3.6
		c10.7,0,18.5,2.8,23.4,7.8c5.2,5.2,7.5,12.8,7.5,22.1v31.6c0,5.3-4.3,9.4-9.6,9.4c-5.7,0-9.4-4-9.4-8.2v-0.1
		c-4.8,5.3-11.4,8.8-21,8.8C752,133.6,741.3,126.1,741.3,112.4z M786.5,107.9v-3.5c-3.4-1.6-7.8-2.6-12.5-2.6
		c-8.4,0-13.6,3.4-13.6,9.6v0.3c0,5.3,4.4,8.4,10.7,8.4C780.2,120,786.5,115,786.5,107.9z"/>
	<path class="st1" d="M818.3,112.7V79.8h-0.6c-4.7,0-8.4-3.8-8.4-8.4c0-4.7,3.8-8.4,8.4-8.4h0.6v-8.7c0-5.4,4.4-9.8,9.8-9.8
		c5.4,0,9.8,4.4,9.8,9.8V63h8.7c4.7,0,8.4,3.8,8.4,8.4c0,4.7-3.8,8.4-8.4,8.4h-8.7v29.6c0,4.5,1.9,6.7,6.3,6.7
		c0.6,0,1.9-0.1,2.3-0.1c4.4,0,8.2,3.6,8.2,8.1c0,3.5-2.3,6.3-5,7.4c-3.6,1.4-7,1.9-11.3,1.9C826.4,133.5,818.3,128.7,818.3,112.7z"
		/>
	<path class="st1" d="M860.6,125.7c-2.1-1.3-3.8-3.6-3.8-6.7c0-4.4,3.4-7.8,7.8-7.8c1.4,0,2.8,0.4,3.9,1c6.6,4.1,13.2,6.2,18.8,6.2
		c5.7,0,8.3-2.1,8.3-5.2V113c0-4.3-6.7-5.7-14.4-8c-9.7-2.8-20.7-7.4-20.7-20.8v-0.3c0-14.1,11.4-22,25.4-22
		c7.2,0,14.7,1.9,21.5,5.3c2.8,1.4,4.7,4,4.7,7.4c0,4.4-3.5,7.8-7.9,7.8c-1.4,0-2.3-0.3-3.6-0.9c-5.6-2.7-10.9-4.4-15-4.4
		c-4.8,0-7.2,2.1-7.2,4.8v0.3c0,3.9,6.6,5.7,14.1,8.3c9.7,3.2,21,7.9,21,20.6v0.3c0,15.4-11.5,22.4-26.5,22.4
		C878.2,133.6,869,131.2,860.6,125.7z"/>
</g>
</svg>
